<svg id="Capa_1" enable-background="new 0 0 512 512" height="512" viewBox="0 0 512 512" width="512" xmlns="http://www.w3.org/2000/svg"><g><g><path d="m256 36-246 440h492c-45.05-80.576-198.793-355.563-246-440z" fill="#ffda8f"/><path d="m256 236c-66.27 0-145 60-145 60s78.73 60 145 60 145-60 145-60-78.73-60-145-60z" fill="#fff5f5"/><path d="m256 236c33.09 0 60 26.91 60 60s-26.91 60-60 60-60-26.91-60-60 26.91-60 60-60z" fill="#91def5"/><circle cx="256" cy="296" fill="#8690a6" r="20"/></g><g><path d="m10 486h492c3.548 0 6.83-1.88 8.625-4.94s1.834-6.842.103-9.939c-3.199-5.721-230.998-413.167-246-440-1.767-3.162-5.106-5.121-8.728-5.121s-6.961 1.958-8.729 5.12c-10.647 19.043-234.97 420.271-246 440-1.731 3.097-1.692 6.879.103 9.939 1.796 3.061 5.078 4.941 8.626 4.941zm73.732-121.387c47.736 31.665 114.324 61.387 172.268 61.387 19.569 0 40.947-3.33 63.542-9.897 5.303-1.542 8.353-7.09 6.812-12.394s-7.091-8.354-12.394-6.812c-20.78 6.041-40.281 9.103-57.96 9.103-59.602 0-126.91-34.898-162.488-58.88l20.489-36.648c23.103 15.997 85.879 55.528 141.999 55.528s118.896-39.531 141.999-55.527l20.478 36.628c-5.83 3.911-13.978 9.098-24.252 14.953-4.798 2.734-6.472 8.841-3.737 13.639 2.735 4.799 8.841 6.472 13.639 3.737 9.978-5.686 18.086-10.801 24.139-14.819l19.643 35.134c-27.322 18.035-108.219 66.255-191.909 66.255-68.491 0-144.337-34.616-191.915-66.247zm131.315-234.872c14.004-2.472 27.767-3.741 40.953-3.741s26.949 1.269 40.953 3.741l26.728 47.806c-23.832-7.664-46.518-11.547-67.681-11.547s-43.849 3.883-67.681 11.547zm-41.678 74.546c29.705-12.131 57.505-18.287 82.631-18.287s52.926 6.156 82.631 18.287l34.183 61.141c-30.045-17.747-75.253-39.428-116.814-39.428s-86.769 21.681-116.815 39.428zm32.631 91.713c0-27.57 22.43-50 50-50s50 22.43 50 50-22.43 50-50 50-50-22.43-50-50zm-9.599 36.664c-28.477-11.332-54.032-27.22-68.048-36.664 14.016-9.444 39.571-25.332 68.048-36.664-6.588 10.671-10.401 23.229-10.401 36.664s3.813 25.993 10.401 36.664zm119.198-73.328c28.477 11.332 54.032 27.22 68.048 36.664-14.016 9.444-39.571 25.332-68.048 36.664 6.589-10.671 10.401-23.229 10.401-36.664s-3.812-25.993-10.401-36.664zm44.732 206.664c44.159-15.919 79.918-37.352 97.362-48.757l27.26 48.757zm-104.331-409.509 28.642 51.229c-9.726-1.136-19.308-1.72-28.642-1.72s-18.916.583-28.642 1.72zm-201.692 360.75c17.662 11.553 53.318 32.9 97.302 48.759h-124.563z"/><path d="m396 166c5.523 0 10-4.477 10-10v-40c0-5.523-4.477-10-10-10s-10 4.477-10 10v40c0 5.523 4.477 10 10 10z"/><path d="m436 206h40c5.523 0 10-4.477 10-10s-4.477-10-10-10h-40c-5.523 0-10 4.477-10 10s4.477 10 10 10z"/><path d="m443.071 163.071 30-30c3.905-3.905 3.905-10.237 0-14.143-3.905-3.904-10.237-3.904-14.143 0l-30 30c-3.905 3.905-3.905 10.237 0 14.143 3.907 3.906 10.238 3.905 14.143 0z"/><path d="m136 166c5.523 0 10-4.477 10-10v-40c0-5.523-4.477-10-10-10s-10 4.477-10 10v40c0 5.523 4.477 10 10 10z"/><path d="m56 206h40c5.523 0 10-4.477 10-10s-4.477-10-10-10h-40c-5.523 0-10 4.477-10 10s4.477 10 10 10z"/><path d="m88.929 163.071c3.906 3.905 10.237 3.905 14.143 0 3.905-3.905 3.905-10.237 0-14.143l-30-30c-3.905-3.904-10.237-3.904-14.143 0-3.905 3.905-3.905 10.237 0 14.143z"/><path d="m256 266c-16.542 0-30 13.458-30 30s13.458 30 30 30 30-13.458 30-30-13.458-30-30-30zm0 40c-5.514 0-10-4.486-10-10s4.486-10 10-10 10 4.486 10 10-4.486 10-10 10z"/><circle cx="359" cy="391" r="10"/></g></g></svg>